<svg xmlns="http://www.w3.org/2000/svg" version="1.1" xmlns:xlink="http://www.w3.org/1999/xlink"
    width="512" height="512" x="0" y="0" viewBox="0 0 382.707 382.707"
    style="enable-background:new 0 0 512 512" xml:space="preserve"><g><path d="M191.269 134.163c-23.245 0-42.138 18.894-42.138 42.138s18.893 42.138 42.138 42.138 42.138-18.893 42.138-42.138-18.893-42.138-42.138-42.138zm0 66.869c-13.62 0-24.73-11.11-24.73-24.73s11.059-24.73 24.73-24.73c13.619 0 24.73 11.11 24.73 24.73 0 13.619-11.11 24.73-24.73 24.73zM280.664 269.33v-.152c-3.686-26.317-25.498-46.387-52.019-47.872H227.212c-.154 0-.358.051-.512.051-.102 0-.256.051-.358.051-.154.051-.307.051-.512.102-.102.051-.205.051-.307.102-.154.051-.307.102-.512.154-.102.051-.205.051-.307.102-.154.051-.307.154-.461.205l-.307.154c-.154.102-.307.154-.461.256-.102.051-.205.102-.307.205-.154.102-.256.154-.41.256-.102.051-.205.154-.307.256-.051.051-.154.102-.205.154l-31.078 26.061-31.078-26.061c-.051-.051-.154-.102-.205-.154a1.56 1.56 0 0 0-.358-.256c-.102-.102-.205-.154-.358-.256-.102-.102-.256-.154-.358-.205-.102-.051-.256-.154-.41-.205-.102-.051-.256-.102-.358-.154-.154-.051-.256-.102-.41-.154-.102-.051-.256-.102-.358-.154-.154-.051-.256-.102-.41-.154-.154-.051-.256-.051-.41-.102-.154-.051-.307-.051-.41-.102-.154 0-.256-.051-.41-.051s-.307-.051-.461-.051H153.689c-26.522 1.485-48.333 21.555-52.019 47.872v.153c-3.021 20.326-2.765 40.858.819 61.082 1.331 7.629 7.936 13.158 15.718 13.158h146.176c7.731 0 14.336-5.53 15.718-13.158 3.482-19.917 3.686-40.448.563-61.133zm-17.511 56.783h-19.354l.973-43.827c.102-3.942-3.072-7.219-7.014-7.322-3.994-.102-7.219 3.072-7.322 7.014l-.973 44.186h-76.544l-1.126-44.186c-.102-3.942-3.379-7.066-7.373-6.963-3.942.102-7.066 3.379-6.963 7.373l1.126 43.827h-19.098c-3.072-17.971-3.226-36.25-.512-54.374v-.102c2.253-17.203 15.821-30.515 32.717-32.819l33.894 28.416c.051.051.102.102.205.154.102.102.205.154.307.205l.461.307c.102.051.205.102.256.154.512.307 1.024.512 1.587.717.051 0 .154.051.205.051l.614.154c.102 0 .154.051.256.051.205.051.41.102.666.102.051 0 .154 0 .205.051.307.051.563.051.87.051s.563 0 .87-.051c.051 0 .154 0 .205-.051.205-.051.41-.051.666-.102.102 0 .154-.051.256-.051l.614-.154c.051 0 .154-.051.205-.051.563-.205 1.075-.41 1.587-.717.102-.051.205-.102.256-.154l.461-.307c.102-.051.205-.154.307-.205.051-.051.102-.102.205-.154l33.894-28.416c16.896 2.304 30.413 15.616 32.768 32.717v.102c2.767 18.431 2.664 36.71-.357 54.374zM91.429 39.085c-23.245 0-42.138 18.893-42.138 42.138 0 23.245 18.893 42.138 42.138 42.138s42.138-18.893 42.138-42.138c0-23.245-18.893-42.138-42.138-42.138zm0 66.868c-13.619 0-24.73-11.11-24.73-24.73s11.11-24.73 24.73-24.73c13.619 0 24.73 11.11 24.73 24.73s-11.11 24.73-24.73 24.73z" fill="#000000" opacity="1"></path><path
    d="M155.121 134.37a55.874 55.874 0 0 0-26.368-8.141h-1.024c-.154 0-.307.051-.461.051-.102 0-.256.051-.358.051-.154.051-.307.051-.461.102-.102.051-.256.051-.358.102l-.461.154c-.102.051-.205.051-.307.102a1.793 1.793 0 0 0-.461.205l-.307.154c-.154.051-.307.154-.461.256-.102.051-.205.102-.307.205-.154.102-.256.154-.41.256-.102.051-.205.154-.307.256-.051.051-.154.102-.205.154l-31.232 26.214-31.078-26.163c-.051-.051-.154-.102-.205-.154a1.56 1.56 0 0 0-.358-.256c-.102-.102-.256-.154-.358-.256-.102-.051-.256-.154-.358-.205-.154-.051-.256-.154-.41-.205-.102-.051-.256-.102-.358-.154-.154-.051-.256-.102-.41-.154-.102-.051-.256-.102-.358-.154a3.37 3.37 0 0 1-.41-.154c-.154-.051-.256-.051-.41-.102-.154-.051-.307-.051-.461-.102-.154 0-.256-.051-.41-.051s-.307-.051-.461-.051h-1.434c-26.522 1.485-48.384 21.555-52.07 47.872v.153c-3.021 20.378-2.765 41.011.819 61.235 1.331 7.629 7.936 13.158 15.718 13.158h82.33c4.506-.101 8.449-3.992 8.449-8.805s-3.891-8.704-8.704-8.704H53.08l-.973-43.827c-.102-3.942-3.379-7.066-7.322-7.014-3.942.102-7.117 3.379-7.014 7.322l.973 43.52H19.595c-3.072-18.074-3.277-36.403-.512-54.528v-.102c2.355-17.152 15.872-30.464 32.768-32.717l33.894 28.57c.051.051.154.102.205.154.102.102.205.154.307.205l.461.307c.102.051.205.102.256.154.256.154.512.256.768.41h.051l.768.307c.051 0 .154.051.205.051l.614.154c.102 0 .154.051.256.051.205.051.41.051.666.102.051 0 .154 0 .205.051.307.051.563.051.87.051s.563 0 .87-.051c.051 0 .154 0 .205-.051.205-.051.41-.051.666-.102.102 0 .154-.051.256-.051l.614-.154c.051 0 .154-.051.205-.051l.768-.307h.051c.256-.102.512-.256.768-.41.102-.051.205-.102.256-.154l.461-.307c.102-.051.205-.154.307-.205.051-.051.154-.102.205-.154l34.099-28.57a38.04 38.04 0 0 1 14.899 5.325 8.66 8.66 0 0 0 4.557 1.28 8.727 8.727 0 0 0 7.424-4.147c2.509-4.096 1.229-9.472-2.867-11.981zM290.904 39.085c-23.245 0-42.138 18.893-42.138 42.138 0 23.245 18.893 42.138 42.138 42.138s42.138-18.893 42.138-42.138c0-23.245-18.893-42.138-42.138-42.138zm0 66.868c-13.62 0-24.73-11.11-24.73-24.73s11.111-24.73 24.73-24.73 24.73 11.11 24.73 24.73-11.11 24.73-24.73 24.73zM380.504 174.253v-.153c-3.686-26.317-25.498-46.387-52.019-47.872H327c-.154 0-.307.051-.461.051s-.256.051-.41.051-.307.051-.41.102c-.154.051-.256.051-.41.102-.154.051-.256.102-.41.102-.154.051-.256.102-.41.154-.154.051-.256.102-.41.154a.812.812 0 0 0-.358.205c-.102.051-.256.154-.358.205-.154.051-.256.154-.358.256-.102.051-.205.154-.307.205-.154.102-.256.205-.41.307l-.154.154-31.232 26.214-30.925-26.163c-.051-.051-.102-.051-.102-.102a1.824 1.824 0 0 0-.512-.358c-.051-.051-.154-.102-.205-.154l-.461-.307c-.102-.051-.205-.102-.256-.154a1.828 1.828 0 0 0-.461-.205l-.307-.154a83.023 83.023 0 0 1-.461-.154c-.102-.051-.256-.051-.358-.102-.154-.051-.307-.102-.461-.102-.154-.051-.256-.051-.41-.102-.154-.051-.307-.051-.41-.051-.154 0-.307-.051-.461-.051h-1.127c-9.318.461-18.432 3.277-26.368 8.192-4.096 2.509-5.376 7.885-2.867 11.981a8.727 8.727 0 0 0 11.981 2.867 38.637 38.637 0 0 1 14.848-5.325l33.69 28.518c.051.051.154.102.205.154.102.102.205.154.307.205l.461.307c.102.051.154.102.256.154.256.154.512.256.768.41.051 0 .051 0 .102.051.256.102.461.205.717.307.051 0 .154.051.205.051l.614.154c.102 0 .154.051.256.051.205.051.41.102.666.102.051 0 .154 0 .205.051.307.051.563.051.87.051s.563 0 .87-.051c.051 0 .154 0 .205-.051.205-.051.41-.051.666-.102.102 0 .154-.051.256-.051l.614-.154c.051 0 .154-.051.205-.051.256-.102.512-.205.717-.307 0 0 .051 0 .051-.051.256-.102.512-.256.768-.41.102-.051.154-.102.256-.154l.461-.307c.102-.051.205-.154.307-.205.051-.051.154-.102.205-.154l34.099-28.57c16.896 2.304 30.413 15.616 32.768 32.717v.102c2.765 18.483 2.662 36.864-.358 54.528h-19.507l1.126-43.469c.102-3.942-3.021-7.27-6.963-7.373-3.942-.103-7.27 3.021-7.373 6.963l-1.126 43.827h-47.616c-4.813 0-8.704 3.891-8.704 8.704s3.891 8.704 8.704 8.704h82.688c7.731 0 14.336-5.53 15.718-13.158 3.484-19.916 3.689-40.55.566-61.286z"
    fill="#000000" opacity="1"></path></g></svg>