<svg xmlns="http://www.w3.org/2000/svg" version="1.1" xmlns:xlink="http://www.w3.org/1999/xlink"
    width="512" height="512" x="0" y="0" viewBox="0 0 512 512"
    style="enable-background:new 0 0 512 512" xml:space="preserve" class=""><g><path fill="#407093" d="m184.017 370.523-13.81-6.611-82.042 121.305h91.56l8.823-5.753V374.675z" opacity="1"></path><path
    fill="#365e7d" d="m171.456 364.51-31.05-14.865h-5.852L46.755 479.464l5.227 5.753h37.837z"
    opacity="1"></path><path fill="#4a80aa"
    d="M205.031 479.464H83.961c-5.5 0-9.959 4.458-9.959 9.959v12.62c0 5.499 4.458 9.957 9.957 9.958h121.072c5.5 0 9.959-4.458 9.959-9.958v-12.62c0-5.501-4.459-9.959-9.959-9.959z"
    opacity="1" class=""></path><path fill="#407093"
    d="M76.063 502.042v-12.62c0-5.5 4.459-9.959 9.959-9.959h-64.13c-5.5 0-9.959 4.458-9.959 9.959v12.62c0 5.5 4.459 9.958 9.959 9.958h64.129c-5.5 0-9.958-4.458-9.958-9.958z"
    opacity="1"></path><path fill="#4a80aa"
    d="M167.288 292.445a58.12 58.12 0 0 0-5.833 25.427c0 24.919 15.604 46.176 37.566 54.585a57.033 57.033 0 0 0 24.425-15.299v-12.733z"
    opacity="1" class=""></path><path fill="#407093"
    d="M162.437 318.072c0-8.908 2.06-17.328 5.707-24.835l-17.951-16.616h-7.284c-11.015 10.391-17.901 25.112-17.901 41.45 0 31.474 25.514 56.988 56.988 56.988a56.789 56.789 0 0 0 18.703-3.164c-22.272-7.748-38.262-28.912-38.262-53.823z"
    opacity="1"></path><path fill="#ffd086"
    d="M493.303 6.763c-9.018-9.018-23.639-9.018-32.656 0L438.61 28.8v2.793l27.505 28.673 5.151 1.19 22.036-22.037c9.019-9.017 9.019-23.638.001-32.656z"
    opacity="1"></path><path fill="#ffc365"
    d="M499.395 17.663a22.954 22.954 0 0 0-6.092-10.9c-9.018-9.018-23.639-9.018-32.656 0L438.61 28.8v2.793l14.583 15.202c8.694-9.047 17.326-17.975 21.765-22.414 7.4-7.399 18.208-7.456 24.437-6.718z"
    opacity="1"></path><path fill="#365e7d"
    d="M417.858 65.465a7.92 7.92 0 0 1-.766-.038L162.434 40.361a7.726 7.726 0 1 1 1.514-15.379l254.658 25.065a7.728 7.728 0 0 1-.748 15.418z"
    opacity="1"></path><path fill="#407093"
    d="M236.087 113.138a7.727 7.727 0 0 1-1.955-15.203L415.893 50.26a7.728 7.728 0 0 1 3.921 14.948l-181.761 47.675a7.77 7.77 0 0 1-1.966.255z"
    opacity="1"></path><path fill="#365e7d"
    d="M467.222 344.767a7.728 7.728 0 0 1-7.681-6.976l-24.91-254.814a7.728 7.728 0 0 1 6.938-8.442c4.247-.396 8.026 2.692 8.441 6.939l24.91 254.814a7.728 7.728 0 0 1-7.698 8.479z"
    opacity="1"></path><path fill="#407093"
    d="M393.925 272.44a7.726 7.726 0 0 1-7.473-9.709l48.377-182.463a7.726 7.726 0 1 1 14.936 3.96l-48.377 182.463a7.729 7.729 0 0 1-7.463 5.749z"
    opacity="1"></path><path fill="#ffc365"
    d="m416.464 50.939 22.093-22.093 32.652 32.651-22.093 22.093z" opacity="1"></path><path
    fill="#ffa90f"
    d="M433.243 67.626c5.31-5.56 13.602-14.232 21.622-22.57L438.61 28.8l-22.097 22.096z"
    opacity="1"></path><path fill="#4a80aa"
    d="M454.088 96.197a7.704 7.704 0 0 1-5.463-2.263l-42.493-42.492a7.727 7.727 0 1 1 10.927-10.928l42.493 42.492a7.727 7.727 0 0 1-5.464 13.191z"
    opacity="1" class=""></path><path fill="#ed0909"
    d="M459.076 358.676 200.363 97.719c-34.3 77.434-40.256 160.559-14.578 232.24 70.916 63.97 176.851 73.793 274.375 33.581z"
    opacity="1" class=""></path><path fill="#ed0909"
    d="M201.741 99.109 142.466 39.32l-5.94.586c-41.762 101.283-29.568 211.646 41.21 282.424a215.317 215.317 0 0 0 13.29 12.214c-29.836-71.596-24.987-156.75 10.715-235.435z"
    opacity="1" class=""></path><path fill="#ed0909"
    d="m482.718 340.127-262.39-262.39a12.653 12.653 0 0 0-7.056 3.56l-11.413 11.414c-2.451 2.451-3.67 5.652-3.705 8.865l261.558 261.557c3.889 3.889 10.194 3.889 14.083 0l8.924-8.923c3.888-3.888 3.888-10.194-.001-14.083z"
    opacity="1" class=""></path><path fill="#ed0909"
    d="m202.253 92.907 11.175-11.175a12.407 12.407 0 0 1 7.339-3.555l-60.828-60.828c-3.889-3.889-10.194-3.889-14.084 0l-8.924 8.924c-3.889 3.889-3.889 10.194 0 14.083l61.683 61.683c-.081-3.296 1.124-6.617 3.639-9.132z"
    opacity="1" class=""></path></g></svg>