<svg xmlns="http://www.w3.org/2000/svg" version="1.1" xmlns:xlink="http://www.w3.org/1999/xlink"
    width="512" height="512" x="0" y="0" viewBox="0 0 512 512"
    style="enable-background:new 0 0 512 512" xml:space="preserve"><g><path fill="#f2fbff" d="M265.179 362.81c0-52.83 42.98-95.81 95.811-95.81.397 0 .793.007 1.189.014l1.335.022V225.88l-44.655-44.655c-9.818-9.818-15.226-22.872-15.226-36.757s5.407-26.939 15.226-36.757c1.684-1.683 3.922-2.61 6.303-2.61s4.619.927 6.303 2.61l53.248 53.248V42.5c0-19.33-15.67-35-35-35H140.997c-19.33 0-35 15.67-35 35v85.625h4.599c13.233 0 24 10.767 24 24v12.896c0 13.233-10.767 24-24 24v2c13.233 0 24 10.767 24 24v12.896c0 13.233-10.767 24-24 24v2c13.233 0 24 10.767 24 24v12.896c0 13.233-10.767 24-24 24v2c13.233 0 24 10.767 24 24v12.896c0 13.233-10.767 24-24 24h-4.599v67.362h205.925c-27.974-16.749-46.743-47.352-46.743-82.261z" opacity="1" data-original="#f2fbff"></path><path
    fill="#dff6fd"
    d="M342.715 42.5v75.048l41.997 41.997V42.5c0-19.33-15.67-35-35-35h-41.997c19.33 0 35 15.67 35 35zM362.513 267.019v-40.725l-19.799-19.799v62.26a95.881 95.881 0 0 1 18.275-1.756c.599 0 1.194.017 1.791.028-.089 0-.177-.006-.267-.008z"
    opacity="1" data-original="#dff6fd"></path><path fill="#8379c1"
    d="M360.989 458.62a95.235 95.235 0 0 1-50.698-14.549H105.997V469.5c0 19.33 15.67 35 35 35h208.715c19.33 0 35-15.67 35-35v-13.854a95.673 95.673 0 0 1-23.723 2.974z"
    opacity="1" data-original="#8379c1"></path><path fill="#6e61b6"
    d="M360.989 458.62a95.89 95.89 0 0 1-18.275-1.756V469.5c0 19.33-15.67 35-35 35h41.997c19.33 0 35-15.67 35-35v-13.854a95.659 95.659 0 0 1-23.722 2.974z"
    opacity="1" data-original="#6e61b6"></path><g fill="#54469c"><path d="M110.596 128.125c.983 0 1.949.066 2.901.182V42.5c0-15.164 12.336-27.5 27.5-27.5h208.715c15.164 0 27.5 12.336 27.5 27.5v110.958l15 15V42.5c0-23.435-19.065-42.5-42.5-42.5H140.997c-23.435 0-42.5 19.065-42.5 42.5v85.625zM377.212 457.24v12.26c0 15.164-12.336 27.5-27.5 27.5H140.997c-15.164 0-27.5-12.336-27.5-27.5v-91.973c-.952.115-1.919.182-2.901.182H98.497V469.5c0 23.435 19.065 42.5 42.5 42.5h208.715c23.435 0 42.5-19.065 42.5-42.5v-16.108a94.95 94.95 0 0 1-15 3.848z" fill="#54469c" opacity="1" data-original="#54469c"></path></g><path
    fill="#ffcebf"
    d="M135.595 165.021v-12.896c0-13.807-11.193-25-25-25H79.201c-13.807 0-25 11.193-25 25v12.896c0 13.807 11.193 25 25 25-13.807 0-25 11.193-25 25v12.896c0 13.807 11.193 25 25 25-13.807 0-25 11.193-25 25v12.896c0 13.807 11.193 25 25 25-13.807 0-25 11.193-25 25v12.896c0 13.807 11.193 25 25 25h31.395c13.807 0 25-11.193 25-25v-12.896c0-13.807-11.193-25-25-25 13.807 0 25-11.193 25-25v-12.896c0-13.807-11.193-25-25-25 13.807 0 25-11.193 25-25v-12.896c0-13.807-11.193-25-25-25 13.806 0 24.999-11.193 24.999-25z"
    opacity="1" data-original="#ffcebf"></path><path fill="#ffb09e"
    d="M110.595 127.125h-31.2c13.807 0 25 11.193 25 25v12.896c0 13.807-11.193 25-25 25h31.201c13.807 0 25-11.193 25-25v-12.896c-.001-13.807-11.194-25-25.001-25z"
    opacity="1" data-original="#ffb09e"></path><path fill="#ffb09e"
    d="M110.595 190.021h-31.2c13.807 0 25 11.193 25 25v12.896c0 13.807-11.193 25-25 25h31.201c13.807 0 25-11.193 25-25v-12.896c-.001-13.807-11.194-25-25.001-25zM110.595 252.917h-31.2c13.807 0 25 11.193 25 25v12.896c0 13.807-11.193 25-25 25h31.201c13.807 0 25-11.193 25-25v-12.896c-.001-13.807-11.194-25-25.001-25z"
    opacity="1" data-original="#ffb09e"></path><path fill="#ffb09e"
    d="M110.595 315.813h-31.2c13.807 0 25 11.193 25 25v12.896c0 13.807-11.193 25-25 25h31.201c13.807 0 25-11.193 25-25v-12.896c-.001-13.807-11.194-25-25.001-25z"
    opacity="1" data-original="#ffb09e"></path><path fill="#8379c1"
    d="M307.017 53.53H183.692c-4.143 0-7.5-3.358-7.5-7.5s3.357-7.5 7.5-7.5h123.324c4.143 0 7.5 3.358 7.5 7.5s-3.357 7.5-7.499 7.5z"
    opacity="1" data-original="#8379c1"></path><path fill="#a2e62e"
    d="M303.633 144.468c0-13.751 5.31-26.682 14.95-36.468H170.172a5 5 0 0 0-5 5v39.33a5 5 0 0 0 5 5h135.059a52.345 52.345 0 0 1-1.598-12.862z"
    opacity="1" data-original="#a2e62e"></path><path fill="#97d729"
    d="M279 157.33h26.231a52.297 52.297 0 0 1-1.598-12.862c0-13.751 5.31-26.682 14.95-36.468H279a5 5 0 0 1 5 5v39.33a5 5 0 0 1-5 5z"
    opacity="1" data-original="#97d729"></path><path fill="#a2e62e"
    d="M320.537 237.33H170.172a5 5 0 0 1-5-5V193a5 5 0 0 1 5-5h150.365a5 5 0 0 1 5 5v39.33a5 5 0 0 1-5 5z"
    opacity="1" data-original="#a2e62e"></path><path fill="#97d729"
    d="M320.537 188H279a5 5 0 0 1 5 5v39.33a5 5 0 0 1-5 5h41.537a5 5 0 0 0 5-5V193a5 5 0 0 0-5-5z"
    opacity="1" data-original="#97d729"></path><path fill="#ffcebf"
    d="M362.513 226.294v40.725c36.56.574 68.214 21.721 83.861 52.355v-78.998a46.279 46.279 0 0 0-13.555-32.724L332.171 107.003c-3.871-3.871-10.148-3.871-14.019 0-20.691 20.691-20.691 54.238 0 74.929z"
    opacity="1" data-original="#ffcebf"></path><path fill="#ffb09e"
    d="M415 250.668v33.05c13.208 9.048 24.047 21.311 31.374 35.656v-78.998a46.279 46.279 0 0 0-13.555-32.724L332.171 107.003c-3.871-3.871-10.148-3.871-14.019 0a52.82 52.82 0 0 0-11.179 16.468l94.473 94.473A46.282 46.282 0 0 1 415 250.668z"
    opacity="1" data-original="#ffb09e"></path><circle cx="360.989" cy="362.81" r="96.81"
    fill="#0ed2b3" opacity="1" data-original="#0ed2b3"></circle><path fill="#0ab69f"
    d="M360.989 266c-7.177 0-14.168.788-20.9 2.269C383.509 277.825 416 316.52 416 362.81s-32.491 84.985-75.911 94.541a97.165 97.165 0 0 0 20.9 2.269c53.467 0 96.81-43.343 96.81-96.81S414.456 266 360.989 266z"
    opacity="1" data-original="#0ab69f"></path><path fill="#ffffff"
    d="M351.057 402.902a7.478 7.478 0 0 1-5.304-2.197l-37.328-37.328a7.5 7.5 0 0 1 10.607-10.606l32.024 32.025 52.555-52.555a7.5 7.5 0 0 1 10.607 10.606l-57.858 57.858a7.478 7.478 0 0 1-5.303 2.197z"
    opacity="1" data-original="#ffffff"></path><path fill="#0ab69f"
    d="M211.703 322.358h-26.938c-6.668 0-12.093-5.424-12.093-12.092v-5.715c0-6.667 5.425-12.092 12.093-12.092h26.938c6.667 0 12.092 5.424 12.092 12.092 0 4.142 3.357 7.5 7.5 7.5s7.5-3.358 7.5-7.5c0-14.938-12.153-27.092-27.092-27.092h-5.97V267c0-4.142-3.357-7.5-7.5-7.5s-7.5 3.358-7.5 7.5v10.459h-5.969c-14.939 0-27.093 12.153-27.093 27.092v5.715c0 14.938 12.153 27.092 27.093 27.092h26.938c6.667 0 12.092 5.424 12.092 12.092v5.714c0 6.667-5.425 12.092-12.092 12.092h-26.938c-6.668 0-12.093-5.425-12.093-12.092 0-4.142-3.357-7.5-7.5-7.5s-7.5 3.358-7.5 7.5c0 14.939 12.153 27.092 27.093 27.092h5.969v10.459c0 4.142 3.357 7.5 7.5 7.5s7.5-3.358 7.5-7.5v-10.459h5.97c14.938 0 27.092-12.153 27.092-27.092v-5.714c0-14.939-12.153-27.092-27.092-27.092z"
    opacity="1" data-original="#0ab69f"></path></g></svg>